<?xml version="1.0" standalone="no"?><!DOCTYPE svg PUBLIC "-//W3C//DTD SVG 1.1//EN" "http://www.w3.org/Graphics/SVG/1.1/DTD/svg11.dtd"><svg t="1591361463490" class="icon" viewBox="0 0 1024 1024" version="1.1" xmlns="http://www.w3.org/2000/svg" p-id="4117" xmlns:xlink="http://www.w3.org/1999/xlink" width="200" height="200"><defs><style type="text/css"></style></defs><path d="M0 0m204.8 0l614.4 0q204.8 0 204.8 204.8l0 614.4q0 204.8-204.8 204.8l-614.4 0q-204.8 0-204.8-204.8l0-614.4q0-204.8 204.8-204.8Z" fill="#AB47BC" p-id="4118"></path><path d="M741.12 216.064h-458.24a51.2 51.2 0 0 0-51.2 51.2V768a51.2 51.2 0 0 0 51.2 51.2h458.24a51.2 51.2 0 0 0 51.2-51.2V267.264a51.2 51.2 0 0 0-51.2-51.2z m-432.384 126.464a51.2 51.2 0 1 1 94.976 38.144 51.2 51.2 0 0 1-14.848 19.968 128 128 0 0 0 245.76 0 51.2 51.2 0 1 1 51.2 7.424A180.48 180.48 0 0 1 337.92 409.6a51.2 51.2 0 0 1-29.184-67.072zM699.648 768H324.352a25.6 25.6 0 0 1 0-51.2h375.296a25.6 25.6 0 0 1 0 51.2z" fill="#FFFFFF" p-id="4119"></path></svg>