<?xml version="1.0" standalone="no"?><!DOCTYPE svg PUBLIC "-//W3C//DTD SVG 1.1//EN" "http://www.w3.org/Graphics/SVG/1.1/DTD/svg11.dtd"><svg t="1591367022105" class="icon" viewBox="0 0 1024 1024" version="1.1" xmlns="http://www.w3.org/2000/svg" p-id="10194" xmlns:xlink="http://www.w3.org/1999/xlink" width="200" height="200"><defs><style type="text/css"></style></defs><path d="M0 0h1024v1024H0z" fill="#6690FF" p-id="10195"></path><path d="M277.3248 192h469.3504c23.552 0 42.6496 19.0976 42.6496 42.6752v554.6496c0 23.552-19.0976 42.6752-42.6496 42.6752H277.3248c-23.552 0-42.6496-19.0976-42.6496-42.6752V234.6752c0-23.552 19.0976-42.6752 42.6496-42.6752z m272 106.6752a16 16 0 0 0 0 32h138.6752a16 16 0 0 0 0-32h-138.6752z m0 128a16 16 0 0 0 0 32h138.6752a16 16 0 0 0 0-32h-138.6752z m-213.3248 128a16 16 0 1 0 0 32h352a16 16 0 0 0 0-32h-352z m0 128a16 16 0 1 0 0 32h352a16 16 0 0 0 0-32h-352z m21.3248-346.6752h96v96h-96v-96z m-16-32a16 16 0 0 0-16 16v128c0 8.832 7.168 16 16 16h128c8.8576 0 16-7.168 16-16v-128a16 16 0 0 0-16-16h-128z" fill="#FFFFFF" p-id="10196"></path></svg>