<?xml version="1.0" standalone="no"?><!DOCTYPE svg PUBLIC "-//W3C//DTD SVG 1.1//EN" "http://www.w3.org/Graphics/SVG/1.1/DTD/svg11.dtd"><svg t="1591361692729" class="icon" viewBox="0 0 1024 1024" version="1.1" xmlns="http://www.w3.org/2000/svg" p-id="9644" xmlns:xlink="http://www.w3.org/1999/xlink" width="200" height="200"><defs><style type="text/css"></style></defs><path d="M245.1456 51.473067C133.9904 61.1328 51.2 159.1296 51.2 270.711467v3.976533c0 111.786667 90.1632 202.001067 201.3696 202.001067h190.532267a34.133333 34.133333 0 0 0 34.133333-34.133334V263.662933c0-123.938133-105.847467-223.163733-232.0896-212.189866zM759.773867 50.653867c-117.640533 0-213.026133 95.368533-213.026134 213.009066v178.8928a34.133333 34.133333 0 0 0 34.133334 34.133334h178.8928C877.431467 476.689067 972.8 381.303467 972.8 263.662933c0-117.640533-95.368533-213.009067-213.026133-213.009066zM51.2 760.4224c0.0512 117.572267 95.351467 212.872533 212.923733 212.923733 118.715733 0.0512 213.111467-100.625067 213.111467-219.3408v-154.7776c0-36.693333-15.240533-51.9168-34.082133-51.9168H270.5408C151.825067 547.310933 51.1488 641.706667 51.2 760.4224zM752.725333 547.310933H580.898133a34.133333 34.133333 0 0 0-34.133333 34.133334v178.8928c0 117.640533 95.368533 213.009067 213.009067 213.009066 118.971733 0 215.159467-97.536 212.974933-217.002666-2.133333-117.265067-102.741333-209.032533-220.023467-209.032534z" fill="#515151" p-id="9645"></path></svg>