<?xml version="1.0" standalone="no"?><!DOCTYPE svg PUBLIC "-//W3C//DTD SVG 1.1//EN" "http://www.w3.org/Graphics/SVG/1.1/DTD/svg11.dtd"><svg t="1591361319397" class="icon" viewBox="0 0 1024 1024" version="1.1" xmlns="http://www.w3.org/2000/svg" p-id="2650" xmlns:xlink="http://www.w3.org/1999/xlink" width="200" height="200"><defs><style type="text/css"></style></defs><path d="M1000.727273 186.181818c-13.963636 0-23.272727 9.309091-23.272728 23.272727v719.127273c0 27.927273-20.945455 48.872727-48.872727 48.872727h-34.909091c9.309091-13.963636 13.963636-30.254545 13.963637-48.872727V95.418182C907.636364 41.890909 865.745455 0 812.218182 0H95.418182C41.890909 0 0 41.890909 0 95.418182v830.836363C0 982.109091 41.890909 1024 95.418182 1024H928.581818c53.527273 0 95.418182-41.890909 95.418182-95.418182V209.454545c0-13.963636-9.309091-23.272727-23.272727-23.272727zM116.363636 162.909091c0-13.963636 9.309091-23.272727 23.272728-23.272727h279.272727c13.963636 0 23.272727 9.309091 23.272727 23.272727v162.909091c0 13.963636-9.309091 23.272727-23.272727 23.272727H139.636364c-13.963636 0-23.272727-9.309091-23.272728-23.272727V162.909091z m651.636364 674.909091H139.636364c-11.636364 0-23.272727-9.309091-23.272728-23.272727s11.636364-23.272727 23.272728-23.272728h628.363636c11.636364 0 23.272727 9.309091 23.272727 23.272728s-9.309091 23.272727-23.272727 23.272727z m0-162.909091H139.636364c-11.636364 0-23.272727-9.309091-23.272728-23.272727s11.636364-23.272727 23.272728-23.272728h628.363636c11.636364 0 23.272727 9.309091 23.272727 23.272728s-9.309091 23.272727-23.272727 23.272727z m0-162.909091H139.636364c-11.636364 0-23.272727-9.309091-23.272728-23.272727s11.636364-23.272727 23.272728-23.272728h628.363636c11.636364 0 23.272727 9.309091 23.272727 23.272728s-9.309091 23.272727-23.272727 23.272727z m0-232.727273H512c-11.636364 0-23.272727-9.309091-23.272727-23.272727s11.636364-23.272727 23.272727-23.272727h256c11.636364 0 23.272727 9.309091 23.272727 23.272727s-9.309091 23.272727-23.272727 23.272727z" fill="#1296db" p-id="2651"></path></svg>