<?xml version="1.0" standalone="no"?><!DOCTYPE svg PUBLIC "-//W3C//DTD SVG 1.1//EN" "http://www.w3.org/Graphics/SVG/1.1/DTD/svg11.dtd"><svg t="1591426335590" class="icon" viewBox="0 0 1024 1024" version="1.1" xmlns="http://www.w3.org/2000/svg" p-id="3264" xmlns:xlink="http://www.w3.org/1999/xlink" width="200" height="200"><defs><style type="text/css"></style></defs><path d="M480 0C217.6 0 0 217.6 0 480 0 742.4 217.6 960 480 960c262.4 0 480-217.6 480-480C960 217.6 742.4 0 480 0zM480 896C249.6 896 64 710.4 64 480S249.6 64 480 64 896 249.6 896 480 710.4 896 480 896z" p-id="3265" fill="#515151"></path><path d="M320 448 428.8 352 384 300.8 192 480 377.6 672 422.4 627.2 313.6 512 768 512 768 448Z" p-id="3266" fill="#515151"></path></svg>