<?xml version="1.0" standalone="no"?><!DOCTYPE svg PUBLIC "-//W3C//DTD SVG 1.1//EN" "http://www.w3.org/Graphics/SVG/1.1/DTD/svg11.dtd"><svg t="1591337604636" class="icon" viewBox="0 0 1024 1024" version="1.1" xmlns="http://www.w3.org/2000/svg" p-id="5407" xmlns:xlink="http://www.w3.org/1999/xlink" width="200" height="200"><defs><style type="text/css"></style></defs><path d="M512 757.76c-202.752 0-368.64-155.648-368.64-348.16S309.248 61.44 512 61.44s368.64 155.648 368.64 348.16-165.888 348.16-368.64 348.16z m0-614.4c-157.696 0-286.72 118.784-286.72 266.24s129.024 266.24 286.72 266.24 286.72-118.784 286.72-266.24S669.696 143.36 512 143.36z" fill="#8a8a8a" p-id="5408"></path><path d="M512 573.44c-71.68 0-129.024-55.296-129.024-122.88 0-22.528 18.432-40.96 40.96-40.96s40.96 18.432 40.96 40.96 20.48 40.96 47.104 40.96 47.104-18.432 47.104-40.96 18.432-40.96 40.96-40.96 40.96 18.432 40.96 40.96c0 67.584-57.344 122.88-129.024 122.88z" fill="#8a8a8a" p-id="5409"></path><path d="M698.368 962.56c-22.528 0-40.96-18.432-40.96-40.96 0-67.584-59.392-122.88-133.12-122.88S389.12 854.016 389.12 921.6c0 22.528-18.432 40.96-40.96 40.96s-40.96-18.432-40.96-40.96c0-112.64 96.256-204.8 215.04-204.8S737.28 808.96 737.28 921.6c2.048 22.528-16.384 40.96-38.912 40.96z" fill="#8a8a8a" p-id="5410"></path></svg>